<svg width="51" height="52" viewBox="0 0 51 52" fill="none" xmlns="http://www.w3.org/2000/svg">
<path fill-rule="evenodd" clip-rule="evenodd" d="M44.3766 42.6444C48.4919 38.1161 51 32.1009 51 25.5C51 11.4167 39.5833 0 25.5 0C11.4167 0 0 11.4167 0 25.5C0 39.5833 11.4167 51 25.5 51C29.939 51 34.1131 49.8658 37.7482 47.8713C37.7859 47.8936 37.8256 47.9137 37.8674 47.9316L46.3059 51.5394C47.1351 51.894 47.973 51.0561 47.6185 50.2268L44.3766 42.6444Z" fill="#FD6733"/>
<path d="M29.4666 40.2333C29.4666 42.4241 27.6906 44.2 25.4999 44.2C23.3092 44.2 21.5332 42.4241 21.5332 40.2333C21.5332 38.0426 23.3092 36.2667 25.4999 36.2667C27.6906 36.2667 29.4666 38.0426 29.4666 40.2333Z" fill="white"/>
<path d="M29.4666 30.0334C29.4666 32.2241 27.6906 34 25.4999 34C23.3092 34 21.5332 32.2241 21.5332 30.0334L20.3999 10.7667C20.3999 8.57599 22.6832 6.80005 25.4999 6.80005C28.3166 6.80005 30.5999 8.57599 30.5999 10.7667L29.4666 30.0334Z" fill="white"/>
</svg>
