<svg width="68" height="30" viewBox="0 0 68 30" fill="none" xmlns="http://www.w3.org/2000/svg">
<g clip-path="url(#clip0_487_623)">
<path d="M58.6504 13.8607L57.7644 14.6104C57.3009 14.9989 56.6875 15.1693 56.0809 15.0943C55.4812 15.0057 54.9427 14.6717 54.602 14.1742L48.6656 5.47751C48.6315 5.44343 48.577 5.42299 48.502 5.42299C48.4066 5.42299 48.3725 5.46388 48.3589 5.49796L36.8746 22.0666C36.4725 22.6528 35.8046 23.0004 35.1026 23.0004C35.1026 23.0004 35.1026 23.0004 35.0958 23.0004C34.3869 23.0004 33.7258 22.646 33.3305 22.0598L21.9962 5.47751C21.9621 5.44343 21.9212 5.42299 21.8326 5.42299C21.7372 5.42299 21.7031 5.46388 21.6895 5.49796L5.42753 28.9708C5.10038 29.5024 4.4938 29.8432 3.8395 29.8432H1.89025C1.20187 29.8432 0.561208 29.4752 0.23406 28.8686C-0.0930876 28.2688 -0.0794564 27.5327 0.288585 26.9534L17.0481 2.64905C18.0227 1.08146 19.7266 0.0932028 21.6077 0.00460019C23.4752 -0.0703712 25.2609 0.774761 26.3786 2.26737L35.0208 14.8489C35.0617 14.9103 35.1298 14.9171 35.1639 14.9171C35.198 14.9171 35.2593 14.9103 35.3002 14.8489L43.7107 2.64905C44.6853 1.08146 46.3892 0.0932028 48.2703 0.00460019C50.1377 -0.0703712 51.9234 0.774761 53.0412 2.26737L59.0389 10.9845C59.6727 11.9114 59.5024 13.145 58.6504 13.8607Z" fill="white"/>
<path d="M67.906 26.047C67.906 28.228 66.1203 30 63.9461 30C61.7583 30 59.9863 28.228 59.9863 26.047C59.9863 23.8592 61.7583 22.0735 63.9461 22.0735C66.1271 22.0735 67.906 23.8592 67.906 26.047Z" fill="white"/>
</g>
<defs>
<clipPath id="clip0_487_623">
<rect width="68" height="30" fill="white"/>
</clipPath>
</defs>
</svg>
