<svg width="400" height="400" viewBox="0 0 400 400" fill="none" xmlns="http://www.w3.org/2000/svg">
<path d="M345.361 193.497L340.139 197.976C337.326 200.419 333.711 201.233 330.095 200.826C326.479 200.419 323.265 198.383 321.256 195.126L286.304 143.006C285.902 142.598 285.902 142.598 285.5 142.598C285.098 142.598 284.697 143.006 284.697 143.006L217.202 241.952C214.791 245.617 210.774 247.653 206.756 247.653C202.739 247.653 198.721 245.617 196.311 241.952L129.619 143.006C129.218 142.598 129.218 142.598 128.816 142.598C128.414 142.598 128.012 143.006 128.012 143.006L31.9931 283.078C29.9843 286.335 26.3685 288.371 22.7527 288.371H11.1019C7.08434 288.371 3.46858 286.335 1.45981 282.671C-0.548966 279.006 -0.549003 274.527 1.86152 271.269L100.693 125.904C106.318 116.539 116.362 110.431 127.611 110.024C138.458 109.616 149.305 114.503 155.733 123.461L206.756 198.79C207.158 199.197 207.56 199.197 207.56 199.197C207.961 199.197 207.961 199.197 208.363 198.79L257.779 125.904C263.404 116.539 273.447 110.431 284.697 110.024C295.544 109.616 306.391 114.503 312.819 123.461L348.174 175.581C351.388 182.096 350.584 189.425 345.361 193.497Z" fill="#1D2460"/>
<path d="M400 266.383C400 279.413 389.554 290 376.698 290C363.842 290 353.396 279.413 353.396 266.383C353.396 253.353 363.842 242.766 376.698 242.766C389.554 242.766 400 253.353 400 266.383Z" fill="url(#paint0_linear)"/>
<defs>
<linearGradient id="paint0_linear" x1="376.698" y1="242.766" x2="376.698" y2="290" gradientUnits="userSpaceOnUse">
<stop stop-color="#FFAA3C"/>
<stop offset="1" stop-color="#FD8911"/>
</linearGradient>
</defs>
</svg>
